<svg xmlns="http://www.w3.org/2000/svg" width="35" height="35" viewBox="0 0 35 35">
  <g id="surface1" transform="translate(-63.156 -63.156)">
    <path id="Path_19" data-name="Path 19" d="M66.338,63.156a3.18,3.18,0,0,0-3.182,3.182V94.975a3.18,3.18,0,0,0,3.182,3.182H94.975a3.18,3.18,0,0,0,3.182-3.182V66.338a3.18,3.18,0,0,0-3.182-3.182ZM88.07,71.509A1.5,1.5,0,1,1,86.4,73,1.521,1.521,0,0,1,88.07,71.509ZM75.554,72.627h3.157l5.575,15.691H81.278l-1.33-4.008H74.175l-1.348,4.008h-2.84Zm1.423,2.989-2.15,6.476H79.3l-2.132-6.476Zm9.757.808h2.685V88.319H86.734Z" fill="#b1b1b1"/>
  </g>
</svg>
