<svg xmlns="http://www.w3.org/2000/svg" viewBox="0 0 35 35">
  <g data-name="Group 52" transform="translate(-188 -357)">
    <g id="surface1" transform="translate(124.844 293.844)">
      <path id="Path_19" data-name="Path 19" d="M66.338,63.156a3.18,3.18,0,0,0-3.182,3.182V94.975a3.18,3.18,0,0,0,3.182,3.182H94.975a3.18,3.18,0,0,0,3.182-3.182V66.338a3.18,3.18,0,0,0-3.182-3.182Z" fill="#b1b1b1"/>
    </g>
    <g data-name="surface1" transform="translate(193 258.518)">
      <path id="Path_20" data-name="Path 20" d="M.014,109.129l4.337,7.22L0,123.594H3.61l2.847-4.738L9.3,123.594h3.61l-4.351-7.244,4.337-7.22H9.291l-2.833,4.716-2.833-4.716Zm13.934,0v14.465H19.2c4.088,0,6.627-2.771,6.627-7.232s-2.539-7.232-6.627-7.232Zm3.1,3.1h2.129c2.258,0,3.554,1.509,3.554,4.143s-1.3,4.123-3.554,4.123H17.048Z" fill="#fff"/>
    </g>
  </g>
</svg>
