<svg xmlns="http://www.w3.org/2000/svg" width="35" height="35" viewBox="0 0 35 35">
  <g id="surface1" transform="translate(-63.156 -63.156)">
    <path id="Path_18" data-name="Path 18" d="M66.338,63.156a3.18,3.18,0,0,0-3.182,3.182V94.975a3.18,3.18,0,0,0,3.182,3.182H94.975a3.18,3.18,0,0,0,3.182-3.182V66.338a3.18,3.18,0,0,0-3.182-3.182Zm3.182,9.533h6.332A5.029,5.029,0,0,1,81.129,78a5.086,5.086,0,0,1-5.4,5.245h-3.4v5.146H69.52Zm2.809,2.349v5.873H75.1c2,0,3.175-1.044,3.175-2.914,0-1.927-1.143-2.958-3.163-2.958Zm15.02,1.206c2.827,0,4.6,1.249,4.8,3.418H89.611c-.192-.839-.988-1.373-2.25-1.373-1.23,0-2.156.59-2.156,1.448,0,.677.566,1.087,1.765,1.361l2.094.478c2.274.51,3.331,1.485,3.331,3.238,0,2.287-2.1,3.81-5.071,3.81s-4.835-1.287-5.046-3.449H84.95c.255.882,1.094,1.4,2.442,1.4s2.306-.6,2.306-1.479c0-.677-.509-1.1-1.64-1.355l-2.107-.485c-2.287-.522-3.362-1.578-3.362-3.374C82.589,77.736,84.54,76.244,87.349,76.244Z" transform="translate(0 0)" fill="#b1b1b1"/>
  </g>
</svg>
