<svg xmlns="http://www.w3.org/2000/svg" width="16" height="16" viewBox="0 0 16 16">
  <g id="surface1" transform="translate(-15.943 -14.966)">
    <path id="Path_65" data-name="Path 65" d="M16.948,15.967a1,1,0,0,0-.7,1.712l6.282,6.284L16.25,30.247a1,1,0,1,0,1.412,1.412l6.282-6.284,6.282,6.284a1,1,0,1,0,1.412-1.412l-6.282-6.284,6.282-6.284a1,1,0,0,0,.222-1.1.985.985,0,0,0-.948-.609.969.969,0,0,0-.686.3l-6.282,6.284-6.282-6.284A.984.984,0,0,0,16.948,15.967Z" transform="translate(0 -1)" fill="#255bab"/>
  </g>
</svg>
