<svg id="surface1" xmlns="http://www.w3.org/2000/svg" width="11.715" height="10.814" viewBox="0 0 11.715 10.814">
  <path id="Path_55" data-name="Path 55" d="M37.436,47.367c-3.235,0-5.858,2.22-5.858,4.957a4.506,4.506,0,0,0,1.355,3.168,2.1,2.1,0,0,1-.834,2.3.229.229,0,0,0-.07.164.225.225,0,0,0,.225.225.244.244,0,0,0,.049-.005,6,6,0,0,0,3.08-1.214,6.788,6.788,0,0,0,2.052.319c3.235,0,5.858-2.22,5.858-4.957S40.671,47.367,37.436,47.367Z" transform="translate(-31.578 -47.367)" fill="#cacaca"/>
</svg>
