<svg xmlns="http://www.w3.org/2000/svg" width="18" height="18" viewBox="0 0 18 18">
  <g id="surface1" transform="translate(-7.945 -8)">
    <path id="Path_142" data-name="Path 142" d="M15.6,8a1.35,1.35,0,0,0-1.349,1.35V9.8h-5.4a.9.9,0,1,0,0,1.8h5.4v.45a1.349,1.349,0,1,0,2.7,0V9.35A1.35,1.35,0,0,0,15.6,8ZM18.75,9.8v1.8h6.3a.9.9,0,0,0,0-1.8ZM20.1,14.3a1.35,1.35,0,0,0-1.349,1.35v.45H8.857a.9.9,0,1,0,0,1.8H18.75v.45a1.349,1.349,0,1,0,2.7,0v-2.7A1.35,1.35,0,0,0,20.1,14.3Zm3.148,1.8v1.8h1.8a.9.9,0,0,0,0-1.8ZM11.105,20.6a1.35,1.35,0,0,0-1.349,1.35v.45h-.9a.9.9,0,1,0,0,1.8h.9v.45a1.349,1.349,0,1,0,2.7,0v-2.7A1.35,1.35,0,0,0,11.105,20.6Zm3.148,1.8v1.8H25.046a.9.9,0,0,0,0-1.8Z" fill="#255bab"/>
  </g>
</svg>
