<svg xmlns="http://www.w3.org/2000/svg" width="20" height="20" viewBox="0 0 20 20">
  <g id="surface1" transform="translate(-12 -12)">
    <path id="Path_62" data-name="Path 62" d="M17.556,12A5.561,5.561,0,0,0,12,17.556v8.889A5.561,5.561,0,0,0,17.556,32h8.889A5.561,5.561,0,0,0,32,26.444V17.556A5.561,5.561,0,0,0,26.444,12Zm0,2.222h8.889a3.34,3.34,0,0,1,3.333,3.333v8.889a3.34,3.34,0,0,1-3.333,3.333H17.556a3.34,3.34,0,0,1-3.333-3.333V17.556A3.34,3.34,0,0,1,17.556,14.222Zm10,1.111a1.111,1.111,0,1,0,1.111,1.111A1.113,1.113,0,0,0,27.556,15.333ZM22,16.444A5.556,5.556,0,1,0,27.556,22,5.561,5.561,0,0,0,22,16.444Zm0,2.222A3.333,3.333,0,1,1,18.667,22,3.34,3.34,0,0,1,22,18.667Z" fill="#fff"/>
  </g>
</svg>
