<svg xmlns="http://www.w3.org/2000/svg" width="16" height="16" viewBox="0 0 16 16">
  <path id="Path_72" data-name="Path 72" d="M26.222,12H13.778A1.777,1.777,0,0,0,12,13.778V26.222A1.777,1.777,0,0,0,13.778,28H26.222A1.777,1.777,0,0,0,28,26.222V13.778A1.777,1.777,0,0,0,26.222,12Zm.628,8.628-2.934,2.934a.889.889,0,0,1-1.257-1.257l1.417-1.417H17.333a.889.889,0,0,1,0-1.778h6.743L22.66,17.694a.889.889,0,1,1,1.257-1.257l2.934,2.934A.889.889,0,0,1,26.851,20.628Z" transform="translate(-12 -12)" fill="#255bab"/>
</svg>
