<svg xmlns="http://www.w3.org/2000/svg" width="18" height="18" viewBox="0 0 18 18">
  <path id="Path_141" data-name="Path 141" d="M23.166,9.969a.97.97,0,0,0-.676,1.668l.581.581L17.04,17.05l-.953-.954a.958.958,0,0,0-.695-.293.97.97,0,0,0-.68,1.668l3.209,3.21-5.643,5.645a.961.961,0,0,0,1.36,1.36l5.643-5.645,3.209,3.21a.972.972,0,1,0,1.375-1.375L22.995,23l4.766-6.093.562.562A.972.972,0,1,0,29.7,16.1l-5.833-5.835A.961.961,0,0,0,23.166,9.969Z" transform="translate(-11.996 -9.969)" fill="#d6d6d6"/>
</svg>
