<svg xmlns="http://www.w3.org/2000/svg" width="20" height="14.544" viewBox="0 0 20 14.544">
  <path id="Path_140" data-name="Path 140" d="M13.99,16C7.755,16,4.8,21.344,4.076,22.871a.96.96,0,0,0,0,.8C4.8,25.2,7.755,30.544,13.99,30.544c6.214,0,9.175-5.3,9.9-6.853a.963.963,0,0,0,0-.838C23.165,21.3,20.2,16,13.99,16Zm0,2.727a4.545,4.545,0,1,1-4.545,4.545A4.545,4.545,0,0,1,13.99,18.727Zm0,1.818a2.727,2.727,0,1,0,2.727,2.727A2.728,2.728,0,0,0,13.99,20.545Z" transform="translate(-3.988 -16)" fill="#cbcbcb"/>
</svg>
