<svg xmlns="http://www.w3.org/2000/svg" width="16" height="16" viewBox="0 0 16 16">
  <g id="Group_60" data-name="Group 60" transform="translate(-604 -1504)">
    <rect id="Rectangle_91" data-name="Rectangle 91" width="16" height="16" transform="translate(604 1504)" fill="#4e2929" opacity="0"/>
    <path id="Path_61" data-name="Path 61" d="M47.578,71.6a6.533,6.533,0,0,1-1.885.517A3.292,3.292,0,0,0,47.136,70.3a6.534,6.534,0,0,1-2.084.8,3.286,3.286,0,0,0-5.68,2.245,3.316,3.316,0,0,0,.086.748,9.317,9.317,0,0,1-6.767-3.43,3.291,3.291,0,0,0,1.017,4.382,3.276,3.276,0,0,1-1.488-.409v.041A3.284,3.284,0,0,0,34.855,77.9a3.329,3.329,0,0,1-.865.115,3.261,3.261,0,0,1-.618-.06,3.286,3.286,0,0,0,3.067,2.281,6.592,6.592,0,0,1-4.077,1.4,6.488,6.488,0,0,1-.784-.046,9.333,9.333,0,0,0,14.37-7.865c0-.142,0-.284-.01-.423A6.682,6.682,0,0,0,47.578,71.6Z" transform="translate(572.422 1435.434)" fill="#fff"/>
  </g>
</svg>
