<svg xmlns="http://www.w3.org/2000/svg" width="16" height="16" viewBox="0 0 16 16">
  <g id="surface1" transform="translate(-7.945 -8)">
    <path id="Path_118" data-name="Path 118" d="M15.945,8a.788.788,0,0,0-.565.238l-4.1,3.869-.009.009v0a.385.385,0,0,0-.119.281.4.4,0,0,0,.4.4h2.8v6.4a.8.8,0,0,0,.8.8h1.6a.8.8,0,0,0,.8-.8V12.8h2.8a.4.4,0,0,0,.284-.681l-.025-.025L16.52,8.244a.2.2,0,0,0-.028-.025A.79.79,0,0,0,15.945,8ZM8.755,22.4a.8.8,0,1,0,0,1.6h14.38a.8.8,0,1,0,0-1.6Z" fill="#255bab"/>
  </g>
</svg>
